<svg width="55" height="55" viewBox="0 0 55 55" fill="none" xmlns="http://www.w3.org/2000/svg">
<path d="M29.0378 29.5238C30.5633 29.3728 31.972 28.6589 33.0027 27.5126C34.0334 26.3663 34.5969 24.8905 34.5831 23.3529C34.5557 19.9825 31.7452 17.2437 28.3094 17.2437H22.2556V26.6134H16.5179V50H19.4383V29.5307H29.0378V29.5238ZM25.176 26.6134V20.161H28.3094C30.1441 20.161 31.649 21.6025 31.6627 23.3734C31.6765 25.0071 30.4259 26.4212 28.811 26.6134H25.176Z" fill="#292D32"/>
<path d="M36.6927 31.9194C38.9878 29.7023 40.2728 26.7301 40.314 23.5588C40.3552 20.3531 39.139 17.3329 36.8851 15.0471C34.6312 12.7681 31.6215 11.512 28.4125 11.512H16.511V23.799H19.4314V14.4293H28.4194C30.8381 14.4293 33.1126 15.3765 34.8168 17.0995C36.5209 18.8224 37.4348 21.1014 37.4073 23.5244C37.373 25.9201 36.4041 28.1578 34.6725 29.8327C32.9683 31.4801 30.7213 32.3862 28.3506 32.3862H22.2625V50.0068H25.1829V35.2967H28.3575C31.4909 35.2967 34.4526 34.1023 36.7064 31.9263L36.6927 31.9194Z" fill="#292D32"/>
<path d="M40.6026 11.0041C37.2974 7.77785 32.934 6 28.3094 6H11V50H13.9204V8.91732H28.3094C32.1643 8.91732 35.8063 10.4 38.5618 13.0908C41.3447 15.809 42.8908 19.4265 42.9183 23.2911C42.9802 30.9448 37.0363 37.3423 29.3951 37.8502H29.2577L28.0002 37.8571V40.7744H29.3608L29.5944 40.7607C38.7748 40.1429 45.9074 32.4618 45.8387 23.2705C45.8044 18.6234 43.9422 14.2715 40.6026 11.0109V11.0041Z" fill="#292D32"/>
</svg>
