<svg width="180" height="44" viewBox="0 0 180 44" fill="none" xmlns="http://www.w3.org/2000/svg">
<path d="M105.573 3.43848H102.845V18.2561H105.573V3.43848Z" fill="#F2F2F2"/>
<path d="M59.8087 3.43848H57.0807V18.2561H59.8087V3.43848Z" fill="#F2F2F2"/>
<path d="M51.5429 14.3304C51.5429 15.1951 51.2681 15.6962 49.8594 15.6962H46.7192V9.17611H43.9912V18.963C43.9912 19.8278 43.7163 20.3288 42.3077 20.3288H39.5522V22.8888H42.3695C45.1387 22.8888 46.7192 21.6122 46.7192 19.3817V18.2561H49.9144C52.6836 18.2561 54.2641 16.9796 54.2641 14.749V3.43848H51.5361V14.3304H51.5429Z" fill="#F2F2F2"/>
<path d="M21.3978 7.75537C17.9552 7.75537 14.4782 12.0998 12.1763 14.9755C12.032 15.1608 11.8877 15.3323 11.7502 15.5039V9.17605H9.02225V18.0845C9.02225 19.6356 8.29387 20.3288 6.66533 20.3288H5.09177C3.46322 20.3288 2.73485 19.6356 2.73485 18.0845V9.17605H0V18.4963C0 20.5278 1.31932 22.8887 5.02992 22.8887H6.72718C10.4378 22.8887 11.7571 20.5209 11.7571 18.4963V18.2561H26.6888V13.1155C26.6888 9.60844 24.861 7.75537 21.3978 7.75537ZM14.4301 15.703C16.2648 13.4038 19.1852 10.2055 21.3978 10.2055C23.1363 10.2055 23.8784 11.1527 23.8784 13.3695V15.7098H14.4301V15.703Z" fill="#F2F2F2"/>
<path d="M41.3183 14.749V9.17612H38.5904V14.3304C38.5904 15.1951 38.3155 15.6962 36.9069 15.6962H32.1724V3.43848H29.362V18.2561H36.9687C39.7379 18.2561 41.3183 16.9796 41.3183 14.749Z" fill="#F2F2F2"/>
<path d="M94.7921 4.42676C91.7205 4.42676 89.6934 6.1906 89.5354 8.94961H89.5217V9.27218C89.5217 9.27218 89.5217 9.27904 89.5217 9.28591C89.5217 9.28591 89.5217 9.29277 89.5217 9.29963V9.6222H89.5354C89.666 12.5528 91.48 14.1039 94.8127 14.1039H97.2727V15.703H86.8418V13.1224C86.8418 9.61534 85.014 7.76228 81.5507 7.76228C78.2662 7.76228 76.4178 9.5673 76.2941 12.841H76.2803V13.1636C76.2803 13.1636 76.2803 13.1636 76.2803 13.1705C76.2803 13.1705 76.2803 13.1773 76.2803 13.1842V13.5068H76.3009C76.3559 14.4539 76.6445 15.1677 77.0843 15.703H71.9444C70.2953 15.703 69.4638 15.2843 69.4638 12.9852V9.17609H66.6534V13.1568C66.6534 16.7805 68.1857 18.2561 71.9444 18.2561H100.083V9.231C100.083 6.2661 98.056 4.42676 94.7921 4.42676ZM79.668 15.1608C79.3038 14.7902 79.1182 14.1725 79.0908 13.2322C79.1182 11.1115 79.8535 10.1918 81.5439 10.1918C83.2343 10.1918 84.0245 11.139 84.0245 13.3558V15.6961H81.5645C80.6162 15.6961 80.0322 15.5314 79.668 15.1608ZM92.3321 9.28591C92.3733 8.43487 92.7238 6.87006 94.7921 6.87006C97.0322 6.87006 97.2727 8.68881 97.2727 9.47121V11.537H94.8127C92.8818 11.537 92.3871 10.3566 92.339 9.28591H92.3321Z" fill="#F2F2F2"/>
<path d="M128.642 7.75549C125.831 7.75549 124.574 9.73896 123.357 11.6607L123.096 12.0724C121.914 13.9392 120.794 15.6962 118.877 15.6962H118.747V13.1843C118.747 11.4342 118.293 10.0753 117.4 9.15559C116.5 8.22905 115.173 7.75549 113.456 7.75549C110.171 7.75549 108.323 9.56052 108.199 12.8343H108.185V13.1568C108.185 13.1568 108.185 13.1637 108.185 13.1706C108.185 13.1706 108.185 13.1774 108.185 13.1843V13.5069H108.192C108.288 16.8698 109.841 18.2562 113.469 18.2562H116.019V18.9631C116.019 19.8279 115.744 20.3289 114.335 20.3289H108.474V22.8889H114.397C117.166 22.8889 118.747 21.6123 118.747 19.3818V18.2562H118.87C121.53 18.2562 123 17.014 124.072 15.5315C124.477 16.7669 125.584 17.5561 127.597 18.2425C128.944 18.7023 130.882 19.1621 130.964 19.1827L131.115 19.217L131.438 18.97C131.85 18.6337 132.201 18.3386 132.531 18.0572C132.909 17.7346 133.3 17.4052 133.788 17.0071L133.919 16.9041V13.1225C133.919 9.41639 132.29 7.76236 128.628 7.76236L128.642 7.75549ZM113.469 15.7031C111.889 15.7031 111.057 15.3119 110.996 13.2323C111.023 11.1185 111.765 10.1988 113.449 10.1988C115.132 10.1988 115.929 11.1459 115.929 13.3627V15.7031H113.469ZM131.122 16.4306C130.497 16.2727 129.679 16.0462 128.758 15.7237C126.628 14.9756 126.23 14.3579 126.182 13.3559V12.0862C126.876 10.9675 127.487 10.1988 128.642 10.1988C130.38 10.1988 131.122 11.1459 131.122 13.3627V16.4306Z" fill="#F2F2F2"/>
<path d="M81.5437 3.17323L79.6151 5.09949L81.5728 7.05485L83.5014 5.1286L81.5437 3.17323Z" fill="#F2F2F2"/>
<path d="M17.6734 3.44191L15.7448 5.36816L17.7026 7.32353L19.6311 5.39728L17.6734 3.44191Z" fill="#F2F2F2"/>
<path d="M94.813 2.12759L96.572 3.88457L98.5029 1.95601L96.5446 0L94.7855 1.75698L93.0332 0L91.1024 1.92856L93.0607 3.88457L94.813 2.12759Z" fill="#F2F2F2"/>
<path d="M35.0715 21.3927L33.3124 19.6357L31.3815 21.5643L33.3399 23.5203L35.099 21.7633L36.8512 23.5203L38.7821 21.5918L36.8237 19.6357L35.0715 21.3927Z" fill="#F2F2F2"/>
<path d="M11.9839 29.5683C11.9839 28.2506 11.5853 27.1525 10.8294 26.3975C10.0255 25.5945 8.87108 25.1827 7.39371 25.1827H0V39.2592H2.88602V34.0912H6.96768L9.50325 39.2592H12.671L9.78498 33.5284C11.173 32.7872 11.9839 31.3322 11.9839 29.5615V29.5683ZM2.88602 27.7496H7.22192C8.43818 27.7496 9.07722 28.3673 9.07722 29.5477C9.07722 30.8243 8.40382 31.5587 7.22192 31.5587H2.88602V27.7496Z" fill="#F2F2F2"/>
<path d="M16.553 28.3054H13.8251V39.266H16.553V28.3054Z" fill="#F2F2F2"/>
<path d="M15.177 23.5204L13.2484 25.4467L15.2061 27.402L17.1347 25.4758L15.177 23.5204Z" fill="#F2F2F2"/>
<path d="M25.274 28.3054L23.5355 33.6793C23.3569 34.249 23.1439 34.9559 22.9583 35.5873C22.7385 34.8529 22.498 34.098 22.3193 33.6381L20.2441 28.3054H17.365L21.5085 38.9159C21.1374 39.8836 20.4434 40.4533 19.6394 40.4533H18.3132V42.5191L18.5537 42.6015C18.6224 42.6221 19.2203 42.8142 20.1273 42.8142C22.6491 42.8142 23.7005 40.8102 24.4632 38.6414L28.1051 28.3054H25.2878H25.274Z" fill="#F2F2F2"/>
<path d="M37.4839 36.7884V31.5792C37.4839 29.3487 35.8966 28.0721 33.1342 28.0721C30.3719 28.0721 28.6471 29.2938 28.6471 31.2704C28.6471 31.4626 28.6471 31.6136 28.6746 31.7577L28.7227 32.0528H31.3201V31.4077C31.3201 30.5703 32.2753 30.3919 33.0792 30.3919C34.4879 30.3919 34.7628 30.8929 34.7628 31.7577V32.4234C31.6087 32.4577 28.1455 32.9793 28.1455 36.2805C28.1455 39.266 30.8941 39.4994 31.7393 39.4994C33.1273 39.4994 34.2818 39.067 35.1132 38.2434C35.4499 39.0327 36.1371 39.4788 37.0716 39.4788C37.7519 39.4788 38.2466 39.3072 38.6108 39.1631L38.8307 39.0739V37.1247H37.7793C37.635 37.1247 37.5045 37.0973 37.5045 36.7884H37.4839ZM34.7559 34.5647V34.8942C34.7559 36.205 33.7458 37.1178 32.2959 37.1178C31.4026 37.1178 30.9491 36.7747 30.9491 36.1021C30.9491 35.0795 32.131 34.5991 34.7628 34.5647H34.7559Z" fill="#F2F2F2"/>
<path d="M46.3551 29.0879C45.6611 28.4153 44.6991 28.0722 43.4828 28.0722C40.7273 28.0722 39.1469 30.138 39.1469 33.748C39.1469 38.5042 41.5588 39.4994 43.579 39.4994C44.8365 39.4994 45.8947 39.0602 46.63 38.2503L46.7743 39.2661H49.0899V24.469H46.362V29.0948L46.3551 29.0879ZM46.3551 33.6657V33.9402C46.3551 36.7198 45.0976 37.0424 44.1493 37.0424C43.0156 37.0424 41.9642 36.6718 41.9642 33.9814V33.6314C41.9642 31.0577 42.8438 30.5292 44.17 30.5292C45.6405 30.5292 46.3551 31.5587 46.3551 33.6725V33.6657Z" fill="#F2F2F2"/>
<path d="M56.889 28.0722C55.6934 28.0722 54.697 28.4291 53.9206 29.1429V24.4622H51.1926V39.2592H53.9206V32.9039C53.9206 31.5107 54.8276 30.543 56.1263 30.543C57.3357 30.543 57.8098 31.0165 57.8098 32.2244V39.2661H60.5378V31.9156C60.5378 29.4037 59.2734 28.0722 56.889 28.0722Z" fill="#F2F2F2"/>
<path d="M73.676 25.1827H66.6465V39.2592H69.5325V34.3039H73.5935C76.4864 34.3039 78.2799 32.5401 78.2799 29.7056C78.2799 28.3467 77.8814 27.2142 77.1186 26.4318C76.3147 25.6014 75.1534 25.1827 73.6691 25.1827H73.676ZM75.3733 29.7262C75.3733 30.9821 74.6724 31.7371 73.4973 31.7371H69.5325V27.7564H73.4973C74.7411 27.7564 75.3733 28.4222 75.3733 29.7262Z" fill="#F2F2F2"/>
<path d="M88.0919 36.7884V31.5792C88.0919 29.3487 86.5046 28.0721 83.7423 28.0721C80.98 28.0721 79.2552 29.2938 79.2552 31.2704C79.2552 31.4626 79.2552 31.6136 79.2827 31.7577L79.3308 32.0528H81.9282V31.4077C81.9282 30.5703 82.8834 30.3919 83.6873 30.3919C85.096 30.3919 85.3708 30.8929 85.3708 31.7577V32.4234C82.2168 32.4577 78.7536 32.9793 78.7536 36.2805C78.7536 39.266 81.5022 39.4994 82.3474 39.4994C83.7354 39.4994 84.8898 39.067 85.7213 38.2434C86.058 39.0327 86.7451 39.4788 87.6796 39.4788C88.3599 39.4788 88.8547 39.3072 89.2189 39.1631L89.4388 39.0739V37.1247H88.3874C88.2431 37.1247 88.1125 37.0973 88.1125 36.7884H88.0919ZM85.364 34.5647V34.8942C85.364 36.205 84.3539 37.1178 82.904 37.1178C82.0107 37.1178 81.5572 36.7747 81.5572 36.1021C81.5572 35.0795 82.7391 34.5991 85.3708 34.5647H85.364Z" fill="#F2F2F2"/>
<path d="M94.957 28.0721C94.0156 28.0721 93.2803 28.4702 92.7581 29.2663L92.655 28.3055H90.3118V39.266H93.0398V33.4186C93.0398 31.7096 93.7682 30.8449 95.2112 30.8449H96.2419V28.3329L96.0014 28.2506C95.8777 28.2094 95.438 28.079 94.9501 28.079L94.957 28.0721Z" fill="#F2F2F2"/>
<path d="M106.845 28.3056H103.512L99.98 32.396V24.4622H97.252V39.2592H99.98V35.8963L101.203 34.6883L103.718 39.2592H106.879L103.024 32.6705L106.845 28.3056Z" fill="#F2F2F2"/>
<path d="M109.088 23.5202L107.16 25.4464L109.118 27.4018L111.046 25.4755L109.088 23.5202Z" fill="#F2F2F2"/>
<path d="M110.466 28.3055H107.738V39.2661H110.466V28.3055Z" fill="#F2F2F2"/>
<path d="M118.087 28.0721C116.754 28.0721 115.668 28.5183 114.858 29.3967L114.727 28.3055H112.391V39.266H115.119V32.9107C115.119 31.5449 116.046 30.5498 117.324 30.5498C118.534 30.5498 119.008 31.0233 119.008 32.2312V39.2729H121.736V31.9224C121.736 29.4105 120.472 28.079 118.087 28.079V28.0721Z" fill="#F2F2F2"/>
<path d="M133.924 26.9809V26.624H131.265L131.231 26.9397C131.203 27.2143 131.045 27.8937 130.22 28.3673C129.623 28.1682 128.908 28.0653 128.145 28.0653C125.28 28.0653 123.5 29.4997 123.5 31.8057C123.5 32.8009 123.871 33.6794 124.558 34.3383C123.803 34.6677 123.184 35.3128 123.184 36.2325C123.184 36.8365 123.438 37.3787 123.885 37.763C123.06 38.2915 122.621 39.067 122.621 39.9935C122.621 41.6201 123.892 42.8006 125.644 42.8006H130.056C132.282 42.8006 133.904 41.373 133.904 39.4102C133.904 37.6601 132.653 36.3904 130.935 36.3904H126.599C126.304 36.3904 125.953 36.2806 125.953 35.9786C125.953 35.6217 126.324 35.5462 126.64 35.5462H128.241C131.1 35.5462 132.811 34.1461 132.811 31.8057C132.811 30.9822 132.571 30.2478 132.11 29.6438C133.223 29.2046 133.904 28.2232 133.924 26.974V26.9809ZM130.097 31.8126C130.097 32.8627 129.444 33.3911 128.159 33.3911C127.279 33.3911 126.221 33.1166 126.221 31.8126C126.221 30.7763 126.874 30.2478 128.159 30.2478C129.444 30.2478 130.097 30.7763 130.097 31.8126ZM125.369 39.7327C125.369 39.2111 125.761 38.8337 126.311 38.8337H130.255C130.805 38.8337 131.155 39.1837 131.155 39.7327C131.155 40.2338 130.674 40.6112 130.042 40.6112H126.311C125.74 40.6112 125.369 40.2681 125.369 39.7327Z" fill="#F2F2F2"/>
<path d="M163.198 23.5202C164.724 23.3692 166.132 22.6555 167.163 21.5093C168.194 20.3631 168.757 18.8876 168.744 17.3502C168.716 13.9804 165.906 11.2419 162.47 11.2419H156.416V20.6102H150.679V43.9931H153.599V23.5271H163.198V23.5202ZM159.337 20.6102V14.1588H162.47C164.305 14.1588 165.81 15.6001 165.823 17.3708C165.837 19.0042 164.586 20.418 162.972 20.6102H159.337Z" fill="#F2F2F2"/>
<path d="M170.853 25.9155C173.148 23.6987 174.433 20.7269 174.475 17.5562C174.516 14.351 173.3 11.3312 171.046 9.04578C168.792 6.7672 165.782 5.51123 162.573 5.51123H150.672V17.7964H153.592V8.42809H162.58C164.999 8.42809 167.273 9.37521 168.977 11.0979C170.682 12.8205 171.595 15.0991 171.568 17.5218C171.534 19.9171 170.565 22.1545 168.833 23.8291C167.129 25.4763 164.882 26.3822 162.511 26.3822H156.423V44.0001H159.344V29.2922H162.518C165.652 29.2922 168.613 28.098 170.867 25.9224L170.853 25.9155Z" fill="#F2F2F2"/>
<path d="M174.763 5.00328C171.458 1.77757 167.095 0 162.47 0H145.161V43.9931H148.081V2.91686H162.47C166.325 2.91686 169.967 4.39931 172.723 7.08969C175.506 9.80752 177.052 13.4244 177.079 17.2884C177.141 24.9409 171.197 31.3374 163.556 31.8453H163.419L162.161 31.8521V34.769H163.522L163.755 34.7553C172.936 34.1376 180.068 26.4577 180 17.2678C179.965 12.6214 178.103 8.27016 174.763 5.01014V5.00328Z" fill="#F2F2F2"/>
</svg>
