<svg width="180" height="44" viewBox="0 0 180 44" fill="none" xmlns="http://www.w3.org/2000/svg">
<path d="M105.574 3.43896H102.846V18.2589H105.574V3.43896Z" fill="#292D32"/>
<path d="M59.8099 3.43896H57.0819V18.2589H59.8099V3.43896Z" fill="#292D32"/>
<path d="M51.5434 14.3326C51.5434 15.1975 51.2686 15.6986 49.8599 15.6986H46.7196V9.1775H43.9916V18.966C43.9916 19.8309 43.7167 20.3319 42.3081 20.3319H39.5526V22.8923H42.3699C45.1391 22.8923 46.7196 21.6156 46.7196 19.3847V18.2589H49.9149C52.6841 18.2589 54.2645 16.9822 54.2645 14.7513V3.43896H51.5365V14.3326H51.5434Z" fill="#292D32"/>
<path d="M21.398 7.75659C17.9553 7.75659 14.4783 12.1017 12.1764 14.9778C12.0321 15.1631 11.8878 15.3348 11.7503 15.5064V9.1775H9.02233V18.0873C9.02233 19.6387 8.29395 20.3319 6.66539 20.3319H5.09181C3.46326 20.3319 2.73487 19.6387 2.73487 18.0873V9.1775H0V18.4992C0 20.531 1.31934 22.8923 5.02997 22.8923H6.72724C10.4379 22.8923 11.7572 20.5241 11.7572 18.4992V18.2589H26.6891V13.1176C26.6891 9.60995 24.8612 7.75659 21.398 7.75659ZM14.4302 15.7054C16.2649 13.4059 19.1853 10.2071 21.398 10.2071C23.1365 10.2071 23.8786 11.1544 23.8786 13.3716V15.7123H14.4302V15.7054Z" fill="#292D32"/>
<path d="M41.3186 14.7513V9.1775H38.5906V14.3326C38.5906 15.1975 38.3157 15.6986 36.907 15.6986H32.1726V3.43896H29.3621V18.2589H36.9689C39.7381 18.2589 41.3186 16.9822 41.3186 14.7513Z" fill="#292D32"/>
<path d="M94.7929 4.42749C91.7213 4.42749 89.6942 6.19161 89.5362 8.95105H89.5224V9.27367C89.5224 9.27367 89.5224 9.28053 89.5224 9.2874C89.5224 9.2874 89.5224 9.29426 89.5224 9.30113V9.62375H89.5362C89.6667 12.5548 91.4808 14.1061 94.8135 14.1061H97.2735V15.7055H86.8425V13.1245C86.8425 9.61688 85.0147 7.76353 81.5514 7.76353C78.2668 7.76353 76.4184 9.56883 76.2947 12.8431H76.281V13.1657C76.281 13.1657 76.281 13.1657 76.281 13.1726C76.281 13.1726 76.281 13.1794 76.281 13.1863V13.5089H76.3016C76.3566 14.4562 76.6452 15.1701 77.0849 15.7055H71.945C70.2959 15.7055 69.4644 15.2868 69.4644 12.9872V9.17757H66.6539V13.1588C66.6539 16.7832 68.1863 18.259 71.945 18.259H100.084V9.23248C100.084 6.26712 98.0569 4.42749 94.7929 4.42749ZM79.6686 15.1632C79.3044 14.7925 79.1189 14.1748 79.0914 13.2344C79.1189 11.1133 79.8542 10.1935 81.5446 10.1935C83.235 10.1935 84.0252 11.1408 84.0252 13.3579V15.6986H81.5652C80.6169 15.6986 80.0328 15.5339 79.6686 15.1632ZM92.3329 9.2874C92.3741 8.43623 92.7246 6.87117 94.7929 6.87117C97.033 6.87117 97.2735 8.69021 97.2735 9.47273V11.5389H94.8135C92.8826 11.5389 92.3879 10.3582 92.3398 9.2874H92.3329Z" fill="#292D32"/>
<path d="M128.642 7.75659C125.832 7.75659 124.574 9.74037 123.358 11.6624L123.097 12.0742C121.915 13.9413 120.795 15.6986 118.878 15.6986H118.747V13.1862C118.747 11.4358 118.294 10.0767 117.4 9.1569C116.5 8.23023 115.174 7.75659 113.456 7.75659C110.171 7.75659 108.323 9.5619 108.199 12.8362H108.186V13.1588C108.186 13.1588 108.186 13.1656 108.186 13.1725C108.186 13.1725 108.186 13.1794 108.186 13.1862V13.5089H108.192C108.289 16.8723 109.842 18.2589 113.47 18.2589H116.019V18.966C116.019 19.8308 115.744 20.3319 114.336 20.3319H108.474V22.8923H114.397C117.167 22.8923 118.747 21.6156 118.747 19.3847V18.2589H118.871C121.53 18.2589 123.001 17.0165 124.073 15.5338C124.478 16.7694 125.584 17.5588 127.598 18.2452C128.944 18.7051 130.882 19.165 130.965 19.1856L131.116 19.2199L131.439 18.9728C131.851 18.6365 132.202 18.3413 132.531 18.0599C132.909 17.7372 133.301 17.4078 133.789 17.0096L133.919 16.9067V13.1245C133.919 9.41775 132.291 7.76346 128.628 7.76346L128.642 7.75659ZM113.47 15.7054C111.889 15.7054 111.058 15.3142 110.996 13.2343C111.023 11.1201 111.766 10.2003 113.449 10.2003C115.133 10.2003 115.93 11.1475 115.93 13.3647V15.7054H113.47ZM131.123 16.433C130.497 16.2752 129.68 16.0486 128.759 15.726C126.629 14.9778 126.23 14.36 126.182 13.3578V12.0879C126.876 10.9691 127.488 10.2003 128.642 10.2003C130.381 10.2003 131.123 11.1475 131.123 13.3647V16.433Z" fill="#292D32"/>
<path d="M81.5444 3.17379L79.6158 5.10034L81.5735 7.05601L83.5021 5.12946L81.5444 3.17379Z" fill="#292D32"/>
<path d="M17.6735 3.44234L15.745 5.3689L17.7027 7.32457L19.6313 5.39801L17.6735 3.44234Z" fill="#292D32"/>
<path d="M94.8135 2.12793L96.5726 3.88518L98.5035 1.95632L96.5451 0L94.786 1.75725L93.0338 0L91.1029 1.92886L93.0613 3.88518L94.8135 2.12793Z" fill="#292D32"/>
<path d="M35.0723 21.3959L33.3132 19.6387L31.3823 21.5675L33.3407 23.5239L35.0998 21.7666L36.8521 23.5239L38.783 21.595L36.8246 19.6387L35.0723 21.3959Z" fill="#292D32"/>
<path d="M11.984 30.752C11.984 29.4341 11.5854 28.3358 10.8295 27.5807C10.0256 26.7776 8.87116 26.3657 7.39378 26.3657H0V40.4443H2.88605V35.2756H6.96774L9.50334 40.4443H12.6711L9.78507 34.7127C11.1731 33.9713 11.984 32.5161 11.984 30.7451V30.752ZM2.88605 28.933H7.22199C8.43825 28.933 9.0773 29.5507 9.0773 30.7314C9.0773 32.0082 8.40389 32.7426 7.22199 32.7426H2.88605V28.933Z" fill="#292D32"/>
<path d="M16.5535 29.4889H13.8255V40.4511H16.5535V29.4889Z" fill="#292D32"/>
<path d="M15.1759 24.7031L13.2473 26.6296L15.2051 28.5853L17.1336 26.6588L15.1759 24.7031Z" fill="#292D32"/>
<path d="M25.2735 29.4889L23.535 34.8636C23.3564 35.4334 23.1433 36.1404 22.9578 36.7719C22.7379 36.0374 22.4974 35.2823 22.3188 34.8224L20.2436 29.4889H17.3644L21.5079 40.1011C21.1369 41.0689 20.4428 41.6387 19.6389 41.6387H18.3127V43.7048L18.5532 43.7872C18.6219 43.8078 19.2197 44 20.1267 44C22.6486 44 23.6999 41.9956 24.4627 39.8265L28.1046 29.4889H25.2873H25.2735Z" fill="#292D32"/>
<path d="M37.4843 37.9731V32.7631C37.4843 30.5322 35.8969 29.2555 33.1346 29.2555C30.3722 29.2555 28.6475 30.4773 28.6475 32.4542C28.6475 32.6464 28.6475 32.7975 28.6749 32.9416L28.723 33.2368H31.3205V32.5915C31.3205 31.7541 32.2756 31.5756 33.0796 31.5756C34.4883 31.5756 34.7631 32.0767 34.7631 32.9416V33.6074C31.6091 33.6418 28.1458 34.1635 28.1458 37.4652C28.1458 40.4511 30.8944 40.6845 31.7396 40.6845C33.1277 40.6845 34.2821 40.2521 35.1136 39.4283C35.4503 40.2177 36.1374 40.6639 37.072 40.6639C37.7522 40.6639 38.247 40.4923 38.6112 40.3482L38.8311 40.2589V38.3095H37.7797C37.6354 38.3095 37.5049 38.282 37.5049 37.9731H37.4843ZM34.7563 35.7491V36.0786C34.7563 37.3897 33.7461 38.3026 32.2962 38.3026C31.4029 38.3026 30.9494 37.9594 30.9494 37.2867C30.9494 36.2639 32.1313 35.7834 34.7631 35.7491H34.7563Z" fill="#292D32"/>
<path d="M46.3554 30.2714C45.6614 29.5987 44.6994 29.2555 43.4831 29.2555C40.7276 29.2555 39.1472 31.3216 39.1472 34.9322C39.1472 39.6892 41.5591 40.6845 43.5793 40.6845C44.8368 40.6845 45.895 40.2452 46.6303 39.4352L46.7746 40.4511H49.0903V25.6517H46.3623V30.2783L46.3554 30.2714ZM46.3554 34.8499V35.1244C46.3554 37.9045 45.0979 38.2271 44.1496 38.2271C43.0158 38.2271 41.9645 37.8564 41.9645 35.1656V34.8155C41.9645 32.2414 42.8441 31.7129 44.1703 31.7129C45.6408 31.7129 46.3554 32.7425 46.3554 34.8567V34.8499Z" fill="#292D32"/>
<path d="M56.8895 29.2555C55.6938 29.2555 54.6975 29.6124 53.921 30.3263V25.6449H51.193V40.4443H53.921V34.088C53.921 32.6945 54.828 31.7266 56.1267 31.7266C57.3361 31.7266 57.8103 32.2003 57.8103 33.4084V40.4511H60.5383V33.0995C60.5383 30.5872 59.2739 29.2555 56.8895 29.2555Z" fill="#292D32"/>
<path d="M73.6767 26.3657H66.6471V40.4443H69.5331V35.4883H73.5942C76.4871 35.4883 78.2806 33.7242 78.2806 30.8893C78.2806 29.5302 77.882 28.3975 77.1193 27.615C76.3153 26.7844 75.154 26.3657 73.6698 26.3657H73.6767ZM75.3739 30.9099C75.3739 32.166 74.673 32.9211 73.498 32.9211H69.5331V28.9398H73.498C74.7417 28.9398 75.3739 29.6057 75.3739 30.9099Z" fill="#292D32"/>
<path d="M88.0931 37.9731V32.7631C88.0931 30.5322 86.5058 29.2555 83.7435 29.2555C80.9811 29.2555 79.2563 30.4773 79.2563 32.4542C79.2563 32.6464 79.2563 32.7975 79.2838 32.9416L79.3319 33.2368H81.9294V32.5915C81.9294 31.7541 82.8845 31.5756 83.6885 31.5756C85.0972 31.5756 85.372 32.0767 85.372 32.9416V33.6074C82.218 33.6418 78.7547 34.1635 78.7547 37.4652C78.7547 40.4511 81.5033 40.6845 82.3485 40.6845C83.7366 40.6845 84.891 40.2521 85.7225 39.4283C86.0592 40.2177 86.7463 40.6639 87.6809 40.6639C88.3611 40.6639 88.8559 40.4923 89.2201 40.3482L89.44 40.2589V38.3095H88.3886C88.2443 38.3095 88.1138 38.282 88.1138 37.9731H88.0931ZM85.3651 35.7491V36.0786C85.3651 37.3897 84.355 38.3026 82.9051 38.3026C82.0118 38.3026 81.5583 37.9594 81.5583 37.2867C81.5583 36.2639 82.7402 35.7834 85.372 35.7491H85.3651Z" fill="#292D32"/>
<path d="M94.9578 29.2555C94.0164 29.2555 93.2812 29.6536 92.7589 30.4499L92.6558 29.4889H90.3126V40.4511H93.0406V34.6028C93.0406 32.8936 93.769 32.0287 95.212 32.0287H96.2428V29.5163L96.0023 29.434C95.8786 29.3928 95.4388 29.2624 94.9509 29.2624L94.9578 29.2555Z" fill="#292D32"/>
<path d="M106.846 29.4889H103.513L99.9809 33.58V25.6449H97.2529V40.4443H99.9809V37.0808L101.204 35.8727L103.719 40.4443H106.88L103.025 33.8546L106.846 29.4889Z" fill="#292D32"/>
<path d="M109.089 24.7028L107.161 26.6294L109.119 28.5851L111.047 26.6585L109.089 24.7028Z" fill="#292D32"/>
<path d="M110.467 29.4889H107.739V40.4511H110.467V29.4889Z" fill="#292D32"/>
<path d="M118.087 29.2555C116.754 29.2555 115.669 29.7017 114.858 30.5803L114.727 29.4889H112.391V40.4511H115.119V34.0948C115.119 32.7288 116.047 31.7335 117.325 31.7335C118.534 31.7335 119.008 32.2071 119.008 33.4152V40.458H121.736V33.1064C121.736 30.594 120.472 29.2624 118.087 29.2624V29.2555Z" fill="#292D32"/>
<path d="M133.926 28.1641V27.8071H131.267L131.233 28.1229C131.205 28.3975 131.047 29.077 130.223 29.5507C129.625 29.3516 128.91 29.2486 128.147 29.2486C125.282 29.2486 123.502 30.6833 123.502 32.9897C123.502 33.985 123.873 34.8636 124.56 35.5226C123.805 35.8521 123.186 36.4973 123.186 37.4171C123.186 38.0212 123.44 38.5634 123.887 38.9478C123.062 39.4764 122.623 40.2521 122.623 41.1787C122.623 42.8056 123.894 43.9862 125.646 43.9862H130.058C132.284 43.9862 133.906 42.5585 133.906 40.5953C133.906 38.8449 132.655 37.575 130.937 37.575H126.601C126.306 37.575 125.955 37.4652 125.955 37.1631C125.955 36.8062 126.326 36.7307 126.642 36.7307H128.244C131.102 36.7307 132.813 35.3304 132.813 32.9897C132.813 32.1659 132.573 31.4315 132.112 30.8274C133.225 30.3881 133.906 29.4065 133.926 28.1572V28.1641ZM130.099 32.9965C130.099 34.0468 129.446 34.5753 128.161 34.5753C127.282 34.5753 126.223 34.3007 126.223 32.9965C126.223 31.96 126.876 31.4315 128.161 31.4315C129.446 31.4315 130.099 31.96 130.099 32.9965ZM125.371 40.9179C125.371 40.3962 125.763 40.0187 126.313 40.0187H130.257C130.807 40.0187 131.157 40.3688 131.157 40.9179C131.157 41.419 130.676 41.7965 130.044 41.7965H126.313C125.742 41.7965 125.371 41.4533 125.371 40.9179Z" fill="#292D32"/>
<path d="M163.199 23.5238C164.725 23.3728 166.133 22.6589 167.164 21.5126C168.195 20.3663 168.758 18.8905 168.744 17.3529C168.717 13.9825 165.906 11.2437 162.471 11.2437H156.417V20.6134H150.679V44H153.6V23.5307H163.199V23.5238ZM159.337 20.6134V14.161H162.471C164.305 14.161 165.81 15.6025 165.824 17.3734C165.838 19.0071 164.587 20.4212 162.972 20.6134H159.337Z" fill="#292D32"/>
<path d="M170.854 25.9194C173.149 23.7023 174.434 20.7301 174.475 17.5588C174.517 14.3531 173.3 11.3329 171.046 9.04706C168.793 6.76813 165.783 5.51196 162.574 5.51196H150.672V17.799H153.593V8.42928H162.581C164.999 8.42928 167.274 9.37655 168.978 11.0995C170.682 12.8224 171.596 15.1014 171.569 17.5244C171.534 19.9201 170.565 22.1578 168.834 23.8327C167.13 25.4801 164.883 26.3862 162.512 26.3862H156.424V44.0068H159.344V29.2967H162.519C165.652 29.2967 168.614 28.1023 170.868 25.9263L170.854 25.9194Z" fill="#292D32"/>
<path d="M174.764 5.00406C171.459 1.77785 167.095 0 162.471 0H145.161V44H148.082V2.91732H162.471C166.326 2.91732 169.968 4.4 172.723 7.0908C175.506 9.80905 177.052 13.4265 177.08 17.2911C177.141 24.9448 171.198 31.3423 163.556 31.8502H163.419L162.161 31.8571V34.7744H163.522L163.756 34.7607C172.936 34.1429 180.069 26.4618 180 17.2705C179.966 12.6234 178.103 8.27145 174.764 5.01092V5.00406Z" fill="#292D32"/>
</svg>
